<svg width="256" height="264" viewBox="0 0 256 264" fill="none" xmlns="http://www.w3.org/2000/svg">
<g filter="url(#filter0_d_11_4)">
<path d="M209.897 44.072C211.711 46.7423 210.787 50.3409 208.014 51.9929C205.241 53.645 201.67 52.7231 199.835 50.0674C193.789 41.3164 186.176 33.7368 177.364 27.7203C166.941 20.6034 155.091 15.845 142.641 13.7765C130.19 11.708 117.438 12.3792 105.274 15.7434C94.9902 18.5874 85.3354 23.2981 76.7844 29.624C74.1894 31.5438 70.5119 31.2613 68.4219 28.8014C66.3319 26.3414 66.622 22.6376 69.2016 20.6972C79.059 13.2822 90.2361 7.77399 102.158 4.47689C115.961 0.659724 130.43 -0.101881 144.557 2.24515C158.684 4.59218 172.129 9.9914 183.956 18.0666C194.171 25.0415 202.967 33.868 209.897 44.072Z" fill="#135A1F"/>
<path fill-rule="evenodd" clip-rule="evenodd" d="M187 99C187 131.585 160.585 158 128 158C95.4152 158 69 131.585 69 99C69 66.4152 95.4152 40 128 40C160.585 40 187 66.4152 187 99ZM81.5338 99C81.5338 124.663 102.337 145.466 128 145.466C153.663 145.466 174.466 124.663 174.466 99C174.466 73.3374 153.663 52.5338 128 52.5338C102.337 52.5338 81.5338 73.3374 81.5338 99Z" fill="#135A1F"/>
<path d="M202.701 155.758C205.177 157.685 205.668 161.251 203.65 163.652C194.029 175.096 181.952 184.159 168.334 190.114C153.005 196.817 136.245 199.354 119.689 197.477C103.132 195.601 87.3433 189.374 73.8614 179.405C61.8814 170.546 52.086 159 45.2081 145.682C43.7693 142.896 45.0375 139.528 47.8783 138.2C50.7897 136.84 54.2342 138.142 55.7371 140.982C61.7758 152.395 70.2606 162.296 80.5871 169.932C92.4691 178.718 106.384 184.206 120.976 185.86C135.568 187.514 150.338 185.278 163.849 179.37C175.578 174.241 186.01 166.496 194.392 156.733C196.493 154.285 200.156 153.776 202.701 155.758Z" fill="#135A1F"/>
<path fill-rule="evenodd" clip-rule="evenodd" d="M220.471 20.2381C218.457 20.8841 217 22.7719 217 25V186C217 188.761 219.239 191 222 191C224.761 191 227 188.761 227 186V129H245C247.761 129 250 126.761 250 124C250 123.587 249.95 123.186 249.856 122.802L250.488 122.846C253.309 82.1416 249.847 56.6336 243.958 41.2272C238.171 26.0874 229.173 19.0611 220.448 20.0305L220.471 20.2381ZM227 32.3558C229.343 34.4161 232.076 38.1502 234.617 44.7978C239.617 57.8769 243.102 80.8026 240.72 119H227V32.3558Z" fill="#135A1F"/>
<path d="M9 20C11.7614 20 14 22.2385 14 25V93H25V25C25 22.2385 27.2386 20 30 20C32.7614 20 35 22.2385 35 25V93H46V25C46 22.2385 48.2386 20 51 20C53.7614 20 56 22.2385 56 25V98C56 100.761 53.7614 103 51 103H35V186C35 188.761 32.7614 191 30 191C27.2386 191 25 188.761 25 186V103H9C6.23858 103 4 100.761 4 98V25C4 22.2385 6.23858 20 9 20Z" fill="#135A1F"/>
<path d="M12.8093 223.727L21.7575 255H28.2014L34.1413 234.554H34.3857L40.3409 255H46.7848L55.733 223.727H48.5103L43.3338 245.502H43.059L37.3633 223.727H31.179L25.468 245.456H25.2085L20.032 223.727H12.8093Z" fill="#135A1F"/>
<path d="M65.8836 255V223.727H59.2718V255H65.8836Z" fill="#135A1F"/>
<path d="M71.3235 223.727V255H91.3423V249.549H77.9354V223.727H71.3235Z" fill="#135A1F"/>
<path fill-rule="evenodd" clip-rule="evenodd" d="M95.721 255H106.807C109.983 255 112.711 254.374 114.992 253.122C117.282 251.87 119.038 250.073 120.26 247.732C121.491 245.39 122.107 242.591 122.107 239.333C122.107 236.086 121.491 233.296 120.26 230.965C119.038 228.634 117.292 226.847 115.022 225.605C112.752 224.353 110.044 223.727 106.899 223.727H95.721V255ZM106.532 249.335H102.333V229.392H106.547C108.502 229.392 110.146 229.739 111.479 230.431C112.813 231.123 113.816 232.202 114.488 233.668C115.17 235.134 115.511 237.022 115.511 239.333C115.511 241.664 115.17 243.568 114.488 245.044C113.816 246.51 112.808 247.594 111.464 248.297C110.131 248.989 108.487 249.335 106.532 249.335Z" fill="#135A1F"/>
<path d="M136.957 223.727V255H158.091V249.549H143.569V242.082H156.946V236.63H143.569V229.179H158.03V223.727H136.957Z" fill="#135A1F"/>
<path fill-rule="evenodd" clip-rule="evenodd" d="M161.591 255H168.677L170.997 247.869H182.288L184.603 255H191.688L180.908 223.727H172.387L161.591 255ZM180.612 242.708L176.77 230.874H176.525L172.676 242.708H180.612Z" fill="#135A1F"/>
<path d="M190.44 223.727V229.179H200.014V255H206.55V229.179H216.124V223.727H190.44Z" fill="#135A1F"/>
<path d="M235.746 229.85C236.672 230.533 237.196 231.489 237.319 232.721H243.656C243.625 230.858 243.126 229.219 242.159 227.804C241.192 226.389 239.838 225.285 238.097 224.491C236.367 223.697 234.341 223.3 232.02 223.3C229.74 223.3 227.704 223.697 225.912 224.491C224.12 225.285 222.71 226.389 221.682 227.804C220.664 229.219 220.16 230.874 220.171 232.767C220.16 235.078 220.919 236.915 222.446 238.279C223.973 239.644 226.055 240.646 228.691 241.288L232.096 242.143C233.236 242.418 234.198 242.723 234.982 243.059C235.776 243.395 236.377 243.802 236.784 244.281C237.202 244.759 237.41 245.349 237.41 246.052C237.41 246.805 237.181 247.472 236.723 248.052C236.265 248.632 235.619 249.085 234.784 249.411C233.959 249.737 232.987 249.9 231.867 249.9C230.727 249.9 229.704 249.727 228.798 249.381C227.902 249.024 227.185 248.5 226.645 247.808C226.116 247.105 225.815 246.23 225.744 245.181H219.346C219.397 247.431 219.941 249.32 220.98 250.847C222.028 252.363 223.484 253.509 225.347 254.282C227.22 255.056 229.419 255.443 231.944 255.443C234.489 255.443 236.662 255.061 238.464 254.298C240.276 253.524 241.66 252.44 242.617 251.045C243.584 249.64 244.073 247.981 244.083 246.067C244.073 244.764 243.834 243.609 243.366 242.601C242.907 241.593 242.261 240.718 241.426 239.974C240.591 239.231 239.604 238.605 238.464 238.096C237.324 237.587 236.072 237.18 234.707 236.875L231.898 236.203C231.216 236.05 230.574 235.867 229.974 235.653C229.373 235.429 228.844 235.17 228.386 234.874C227.928 234.569 227.566 234.208 227.302 233.79C227.047 233.373 226.93 232.884 226.95 232.324C226.95 231.652 227.144 231.052 227.531 230.522C227.928 229.993 228.498 229.581 229.241 229.286C229.984 228.98 230.895 228.827 231.974 228.827C233.562 228.827 234.819 229.168 235.746 229.85Z" fill="#135A1F"/>
</g>
<defs>
<filter id="filter0_d_11_4" x="0" y="0.913269" width="255.487" height="262.53" filterUnits="userSpaceOnUse" color-interpolation-filters="sRGB">
<feFlood flood-opacity="0" result="BackgroundImageFix"/>
<feColorMatrix in="SourceAlpha" type="matrix" values="0 0 0 0 0 0 0 0 0 0 0 0 0 0 0 0 0 0 127 0" result="hardAlpha"/>
<feOffset dy="4"/>
<feGaussianBlur stdDeviation="2"/>
<feComposite in2="hardAlpha" operator="out"/>
<feColorMatrix type="matrix" values="0 0 0 0 0 0 0 0 0 0 0 0 0 0 0 0 0 0 0.25 0"/>
<feBlend mode="normal" in2="BackgroundImageFix" result="effect1_dropShadow_11_4"/>
<feBlend mode="normal" in="SourceGraphic" in2="effect1_dropShadow_11_4" result="shape"/>
</filter>
</defs>
</svg>
